<svg width="1200" height="420" viewBox="0 0 1200 420" fill="none" xmlns="http://www.w3.org/2000/svg">
  <defs>
    <linearGradient id="bg" x1="0" y1="0" x2="1200" y2="420" gradientUnits="userSpaceOnUse">
      <stop stop-color="#0B0F14"/>
      <stop offset="1" stop-color="#111820"/>
    </linearGradient>
    <radialGradient id="planet" cx="0" cy="0" r="1" gradientUnits="userSpaceOnUse" gradientTransform="translate(1000 210) rotate(180) scale(260)">
      <stop stop-color="#1F6FEB"/>
      <stop offset="0.5" stop-color="#132F4C"/>
      <stop offset="0.82" stop-color="#0C1824"/>
      <stop offset="1" stop-color="#090D12"/>
    </radialGradient>
    <linearGradient id="glow" x1="745" y1="93" x2="1127" y2="328" gradientUnits="userSpaceOnUse">
      <stop stop-color="#58A6FF" stop-opacity="0.6"/>
      <stop offset="1" stop-color="#58A6FF" stop-opacity="0"/>
    </linearGradient>
    <filter id="blur" x="650" y="-40" width="620" height="500" filterUnits="userSpaceOnUse">
      <feGaussianBlur stdDeviation="32"/>
    </filter>
  </defs>
  <rect width="1200" height="420" rx="28" fill="url(#bg)"/>
  <rect x="32" y="32" width="1136" height="356" rx="20" stroke="#21262D"/>
  <circle cx="1010" cy="210" r="205" fill="#1F6FEB" fill-opacity="0.12" filter="url(#blur)"/>
  <circle cx="1010" cy="210" r="178" fill="url(#planet)"/>
  <ellipse cx="950" cy="150" rx="155" ry="44" transform="rotate(-22 950 150)" fill="url(#glow)" opacity="0.42"/>
  <path d="M817 253C872 186 944 148 1039 140C1082 136 1119 141 1151 152" stroke="#58A6FF" stroke-opacity="0.22" stroke-width="1.5"/>
  <circle cx="828" cy="84" r="2" fill="#8B949E"/>
  <circle cx="1110" cy="83" r="1.5" fill="#8B949E"/>
  <circle cx="764" cy="316" r="1.5" fill="#58A6FF"/>
  <circle cx="1082" cy="330" r="2" fill="#8B949E"/>
  <text x="76" y="92" fill="#8B949E" font-family="-apple-system,BlinkMacSystemFont,'Segoe UI',sans-serif" font-size="18" font-weight="700" letter-spacing="5">LUNALISM</text>
  <text x="76" y="178" fill="#F0F6FC" font-family="-apple-system,BlinkMacSystemFont,'Segoe UI',sans-serif" font-size="62" font-weight="750">Byungjin Choi</text>
  <text x="76" y="224" fill="#C9D1D9" font-family="-apple-system,BlinkMacSystemFont,'Segoe UI',sans-serif" font-size="23" font-weight="500">IT Infrastructure · Product Engineering · iOS</text>
  <text x="76" y="285" fill="#8B949E" font-family="-apple-system,BlinkMacSystemFont,'Segoe UI',sans-serif" font-size="19">Building reliable systems and useful products for everyday life.</text>
  <rect x="76" y="321" width="178" height="42" rx="10" fill="#1F6FEB"/>
  <text x="165" y="348" text-anchor="middle" fill="white" font-family="-apple-system,BlinkMacSystemFont,'Segoe UI',sans-serif" font-size="15" font-weight="700">BUILD · LEARN · SHARE</text>
</svg>